# xmcd CD database file
#
# Track frame offsets:
#	150
#	14902
#	32335
#	49394
#	68400
#	85897
#	104281
#	121812
#	139657
#	154694
#	168026
#	178264
#	195582
#	206503
#	224560
#	243046
#	260147
#	277915
#	298953
#	319642
#
# Disc length: 4406 seconds
#
# Revision: 0
# Processed by: cddbd v1.5.2PL0 Copyright (c) Steve Scherf et al.
# Submitted via: CDex 1.70beta2
#
DISCID=22113414
DTITLE=Miguel Moly - 40 Años, 40 Exitos
DYEAR=2005
DGENRE=Merengue
TTITLE0=Junto a tu corazon
TTITLE1=Dulcemente bella
TTITLE2=Siempre siempre
TTITLE3=En algun rincon de mi alma
TTITLE4=Ojos negros
TTITLE5=No me hagas mas sufrir
TTITLE6=La morena
TTITLE7=Yo por ti
TTITLE8=Recuerdos
TTITLE9=La catira
TTITLE10=Mamita mia
TTITLE11=Ya lo he vivido
TTITLE12=Tengo que escaparme
TTITLE13=Quiereme
TTITLE14=Dime morena
TTITLE15=Juntos
TTITLE16=Sultana
TTITLE17=Llore
TTITLE18=La caderona
TTITLE19=La piernona
EXTD=YEAR: 2005
EXTT0=
EXTT1=
EXTT2=
EXTT3=
EXTT4=
EXTT5=
EXTT6=
EXTT7=
EXTT8=
EXTT9=
EXTT10=
EXTT11=
EXTT12=
EXTT13=
EXTT14=
EXTT15=
EXTT16=
EXTT17=
EXTT18=
EXTT19=
PLAYORDER=
